<svg xmlns="http://www.w3.org/2000/svg" viewBox="0 0 400 300" style="background: linear-gradient(135deg, #1e293b 0%, #0f172a 100%);">
  <defs>
    <linearGradient id="teamGradient" x1="0%" y1="0%" x2="100%" y2="100%">
      <stop offset="0%" style="stop-color:#2563eb;stop-opacity:1" />
      <stop offset="100%" style="stop-color:#06b6d4;stop-opacity:1" />
    </linearGradient>
  </defs>
  
  <!-- Team figures -->
  <g transform="translate(100, 80)">
    <circle cx="0" cy="0" r="15" fill="url(#teamGradient)" opacity="0.9"/>
    <rect x="-10" y="10" width="20" height="25" rx="5" fill="url(#teamGradient)" opacity="0.8"/>
  </g>
  
  <g transform="translate(150, 80)">
    <circle cx="0" cy="0" r="15" fill="url(#teamGradient)" opacity="0.9"/>
    <rect x="-10" y="10" width="20" height="25" rx="5" fill="url(#teamGradient)" opacity="0.8"/>
  </g>
  
  <g transform="translate(200, 80)">
    <circle cx="0" cy="0" r="15" fill="url(#teamGradient)" opacity="0.9"/>
    <rect x="-10" y="10" width="20" height="25" rx="5" fill="url(#teamGradient)" opacity="0.8"/>
  </g>
  
  <g transform="translate(250, 80)">
    <circle cx="0" cy="0" r="15" fill="url(#teamGradient)" opacity="0.9"/>
    <rect x="-10" y="10" width="20" height="25" rx="5" fill="url(#teamGradient)" opacity="0.8"/>
  </g>
  
  <g transform="translate(300, 80)">
    <circle cx="0" cy="0" r="15" fill="url(#teamGradient)" opacity="0.9"/>
    <rect x="-10" y="10" width="20" height="25" rx="5" fill="url(#teamGradient)" opacity="0.8"/>
  </g>
  
  <!-- Collaboration lines -->
  <line x1="115" y1="95" x2="135" y2="95" stroke="#06b6d4" stroke-width="2" opacity="0.6"/>
  <line x1="165" y1="95" x2="185" y2="95" stroke="#06b6d4" stroke-width="2" opacity="0.6"/>
  <line x1="215" y1="95" x2="235" y2="95" stroke="#06b6d4" stroke-width="2" opacity="0.6"/>
  <line x1="265" y1="95" x2="285" y2="95" stroke="#06b6d4" stroke-width="2" opacity="0.6"/>
  
  <!-- Service indicators -->
  <g transform="translate(200, 150)">
    <circle cx="-50" cy="0" r="20" fill="none" stroke="#10b981" stroke-width="2" opacity="0.7"/>
    <text x="-50" y="5" font-family="Arial" font-size="10" fill="#10b981" text-anchor="middle">24/7</text>
    
    <circle cx="0" cy="0" r="20" fill="none" stroke="#f59e0b" stroke-width="2" opacity="0.7"/>
    <text x="0" y="5" font-family="Arial" font-size="10" fill="#f59e0b" text-anchor="middle">SLA</text>
    
    <circle cx="50" cy="0" r="20" fill="none" stroke="#2563eb" stroke-width="2" opacity="0.7"/>
    <text x="50" y="5" font-family="Arial" font-size="8" fill="#2563eb" text-anchor="middle">MGMT</text>
  </g>
  
  <!-- Support tickets -->
  <rect x="50" y="200" width="60" height="40" rx="5" fill="white" opacity="0.9"/>
  <rect x="55" y="205" width="50" height="3" fill="#2563eb"/>
  <rect x="55" y="215" width="40" height="2" fill="#64748b" opacity="0.5"/>
  <rect x="55" y="220" width="45" height="2" fill="#64748b" opacity="0.5"/>
  <rect x="55" y="225" width="35" height="2" fill="#64748b" opacity="0.5"/>
  
  <rect x="290" y="200" width="60" height="40" rx="5" fill="white" opacity="0.9"/>
  <rect x="295" y="205" width="50" height="3" fill="#10b981"/>
  <rect x="295" y="215" width="40" height="2" fill="#64748b" opacity="0.5"/>
  <rect x="295" y="220" width="45" height="2" fill="#64748b" opacity="0.5"/>
  <rect x="295" y="225" width="35" height="2" fill="#64748b" opacity="0.5"/>
  
  <!-- Title -->
  <text x="200" y="280" font-family="Poppins, sans-serif" font-size="16" font-weight="600" 
        fill="white" text-anchor="middle">IT Outsourcing & Managed Services</text>
</svg>